<?xml version="1.0" encoding="utf-8"?>
<!-- Generator: Adobe Illustrator 16.0.0, SVG Export Plug-In . SVG Version: 6.00 Build 0)  -->
<!DOCTYPE svg PUBLIC "-//W3C//DTD SVG 1.1//EN" "http://www.w3.org/Graphics/SVG/1.1/DTD/svg11.dtd">
<svg version="1.1" id="圖層_1" xmlns="http://www.w3.org/2000/svg" xmlns:xlink="http://www.w3.org/1999/xlink" x="0px" y="0px"
	 width="763.846px" height="242.515px" viewBox="0 0 763.846 242.515" enable-background="new 0 0 763.846 242.515"
	 xml:space="preserve">
<g>
	<path fill-rule="evenodd" clip-rule="evenodd" fill="#FF6368" d="M113.431,210.502c-9.655,7.601-18.823,16.255-29.321,22.764
		c-18.454,11.441-38.144,13.59-57.746,2.351C2.875,222.149-5.793,194.201,6.186,167.781c14.974-33.023,30.83-65.65,46.556-98.328
		c7.131-14.819,14.664-29.456,22.393-43.974c6.431-12.08,15.704-21.119,29.64-24.039c17.548-3.677,35.02,3.739,43.752,19.778
		c11.693,21.476,22.838,43.271,33.556,65.253c13.124,26.914,25.812,54.049,38.235,81.294c15.356,33.677-4.399,65.177-32.15,72.951
		c-17.774,4.979-34.14,0.817-48.883-9.198C129.983,225.199,121.733,217.33,113.431,210.502z M102.572,198.605
		c-6.556-10.088-13.174-19.481-18.951-29.368C77.02,157.939,72.615,145.728,72,132.465c-1.047-22.596,13.863-40.059,36.54-42.943
		c21.022-2.674,40.378,10.852,44.881,31.697c2.044,9.463,0.814,18.857-2.033,28.065c-5.249,16.977-14.819,31.514-25.393,45.526
		c-0.922,1.223-1.613,4.063-0.929,4.836c10.472,11.816,21.951,22.426,37.572,27.048c19.664,5.818,39.16-3.68,45.91-22.293
		c4.061-11.197,2.025-21.982-2.938-32.38c-17.34-36.317-34.614-72.666-52.194-108.867c-5.731-11.803-11.833-23.485-18.648-34.687
		c-7.16-11.768-20.303-15.501-32.096-10.063c-6.992,3.225-11.227,9.234-14.665,15.81c-6.929,13.252-14.04,26.421-20.541,39.882
		c-15.767,32.644-31.242,65.426-46.801,98.17c-3.861,8.127-5.896,16.64-4.459,25.676c3.729,23.448,27.975,36.521,51.172,27.565
		C81.78,219.948,92.592,209.664,102.572,198.605z M113.102,186.035c9.026-11.444,16.839-22.803,21.559-35.839
		c2.278-6.293,3.816-13.159,4.055-19.824c0.561-15.619-10.69-25.95-26.623-25.479c-14.987,0.442-25.781,11.721-24.702,26.684
		C88.922,152.783,100.783,169.22,113.102,186.035z"/>
	<path fill-rule="evenodd" clip-rule="evenodd" fill="#FF6368" d="M694.792,97.781c21.696-18.436,53.969-6.509,64.6,15.119
		c10.912,22.202,5.333,53.459-20.8,65.635c-14.834,6.912-29.47,7.042-43.427-4.845c0.901,7.016-3.083,7.093-7.62,6.871
		c-4.761-0.232-9.544-0.052-14.543-0.052c0-44.654,0-88.678,0-132.977c7.216,0,14.141,0,21.791,0
		C694.792,63.902,694.792,80.237,694.792,97.781z M694.984,135.51c0,2.659,0.238,5.344-0.042,7.973
		c-1.122,10.525,2.71,13.246,12.379,16.679c4.431,1.573,9.922,1.391,14.681,0.562c10.949-1.909,18.009-9.855,19.787-20.878
		c1.746-10.823-2.546-20.676-11.411-26.191c-9.297-5.785-21.5-5.434-30.053,0.609c-3.832,2.708-6.007,5.828-5.419,10.786
		C695.314,128.491,694.984,132.02,694.984,135.51z"/>
	<path fill-rule="evenodd" clip-rule="evenodd" fill="#FF6368" d="M499.23,173.963c0.64,6.81-3.397,6.809-7.867,6.604
		c-4.631-0.211-9.28-0.047-14.322-0.047c0-44.397,0-88.438,0-132.873c7.005,0,14.073,0,21.737,0c0,16.267,0,32.639,0,48.868
		c0.889,0.225,1.351,0.468,1.47,0.354c16.315-15.614,48.623-8.583,61.5,13.31c14.551,24.734,6.095,55.889-19.628,68.49
		c-13.746,6.734-27.911,7.038-40.758-3.257C500.891,175.035,500.363,174.729,499.23,173.963z M498.966,135.354
		c0,3.158-0.001,6.317,0,9.476c0.003,8.069,2.901,13.074,10.732,14.944c5.629,1.345,11.97,1.715,17.607,0.587
		c10.69-2.14,16.886-9.729,18.376-20.391c1.477-10.557-1.263-20.123-10.823-26.024c-9.572-5.909-19.638-6.279-29.622-0.304
		c-4.535,2.714-7.093,6.129-6.349,11.748C499.32,128.657,498.967,132.028,498.966,135.354z"/>
	<path fill-rule="evenodd" clip-rule="evenodd" fill="#FF6368" d="M338.867,97.866c-0.683-6.221,2.059-7.411,6.519-7.172
		c5.089,0.273,10.203,0.063,15.531,0.063c0,30.112,0,59.52,0,89.657c-6.481,0-12.918,0.314-19.279-0.244
		c-1.407-0.124-2.542-3.342-3.562-4.792c-4.792,2.128-9.906,5.592-15.481,6.667c-22.603,4.357-43.725-8.609-50.947-30.528
		c-8.092-24.559,3.547-51.242,26.509-59.853C312.163,86.414,325.796,86.705,338.867,97.866z M338.885,135.724
		c-0.007,0-0.013,0-0.02,0c0-4.487,0.2-8.988-0.098-13.454c-0.12-1.795-0.885-3.976-2.126-5.195
		c-7.703-7.566-16.965-9.313-27.083-6.12c-9.868,3.114-16.111,9.827-17.377,20.227c-1.257,10.324,1.22,19.466,10.38,25.767
		c7.221,4.966,15.399,5.835,23.328,3.457c8.699-2.61,14.453-5.68,13.039-17.208C338.627,140.741,338.885,138.216,338.885,135.724z"
		/>
	<path fill-rule="evenodd" clip-rule="evenodd" fill="#FF6368" d="M578.84,180.08c0-29.95,0-59.386,0-89.292
		c5.778,0,11.285-0.421,16.664,0.222c1.963,0.233,3.625,2.997,5.425,4.606c-0.234,0.468-0.469,0.936-0.703,1.404
		c0.649-0.302,1.429-0.462,1.93-0.925c12.408-11.447,37.393-9.897,49.996,3.688c6.316,6.81,8.073,15.235,8.282,23.945
		c0.391,16.316,0.219,32.646,0.278,48.97c0.009,2.307,0.001,4.613,0.001,7.379c-7.584,0-14.808,0-22.808,0
		c0-1.64,0-3.395-0.001-5.15c-0.005-14.994,0.057-29.989-0.065-44.983c-0.028-3.466-0.312-7.021-1.142-10.37
		c-1.179-4.754-3.959-8.758-9.113-9.511c-4.522-0.66-9.398-1.174-13.761-0.182c-9.885,2.246-12.84,6.658-12.849,16.821
		c-0.014,17.642-0.004,35.283-0.004,53.378C593.509,180.08,586.322,180.08,578.84,180.08z"/>
	<path fill-rule="evenodd" clip-rule="evenodd" fill="#FF6368" d="M466.868,110.118c-9.46-1.388-17.934-2.011-25.892,2.985
		c-3.974,2.496-5.455,5.446-5.373,10.201c0.313,17.975,0.173,35.956,0.19,53.935c0.001,0.809-0.105,1.617-0.191,2.846
		c-7.39,0-14.622,0-22.262,0c0-29.473,0-59.136,0-89.387c6.214,0,12.375-0.375,18.438,0.231c1.782,0.179,3.287,3.137,5.383,5.302
		c0.539-0.369,2.069-1.429,3.611-2.472c7.114-4.813,14.91-6.396,23.266-4.51c1.119,0.252,2.652,1.989,2.705,3.1
		C467.013,98.133,466.868,103.936,466.868,110.118z"/>
	<path fill-rule="evenodd" clip-rule="evenodd" fill="#FF6368" d="M398.029,180.586c-6.174,0-11.963,0.021-17.751-0.018
		c-1.289-0.009-2.577-0.234-4.091-0.383c0-29.661,0-59.062,0-88.989c7.17,0,14.332,0,21.843,0
		C398.029,120.854,398.029,150.259,398.029,180.586z"/>
	<path fill-rule="evenodd" clip-rule="evenodd" fill="#FF6368" d="M386.98,47.31c8.511-0.121,15.563,6.849,15.615,15.433
		c0.049,8.107-6.906,15.018-15.348,15.25c-7.939,0.219-15.18-6.979-15.291-15.2C371.846,54.62,378.827,47.426,386.98,47.31z"/>
</g>
</svg>
